<svg version="1.1" id="Layer_1" xmlns="http://www.w3.org/2000/svg" xmlns:xlink="http://www.w3.org/1999/xlink" x="0px" y="0px" viewBox="0 0 500 500" style="width: 171px;" xml:space="preserve" data-imageid="career-3-39" imageName="Career 3" class="illustrations_image">
<style type="text/css">
	.st0_career-3-39{fill:#FFC9B0;}
	.st1_career-3-39{fill:#093F68;}
	.st2_career-3-39{fill:#68E1FD;}
	.st3_career-3-39{fill:#DFEAEF;}
	.st4_career-3-39{fill:#FFFFFF;}
	.st5_career-3-39{fill:#FFBC0E;}
</style>
<g id="hand_career-3-39">
	<path class="st0_career-3-39" d="M115.8,391.6c0,0,29.7-60,52.9-75.1c8-5.2,126-9.9,135.6-0.3s8,23.8-16,28.6s-41.1,4.8-41.1,4.8&#10;&#9;&#9;s50.7,4.3,64.1,0s84.4-41,90.2-36.2s17.3,19.9-3.5,32.9s-61.6,43.4-75,47.2S208.7,433,208.7,433L115.8,391.6z"/>
	<path class="st1_career-3-39" d="M208.7,435.1c-0.3,0-0.6-0.1-0.9-0.2l-92.9-41.4c-0.5-0.2-0.9-0.7-1.1-1.2c-0.2-0.5-0.2-1.1,0.1-1.6&#10;&#9;&#9;c1.2-2.5,30.2-60.7,53.7-75.9c5.4-3.5,44.8-5.6,68.3-6s63.6-0.3,69.9,6c5.2,5.2,7.2,11.5,5.5,17.1c-1.5,5.1-6.7,11.9-22.6,15&#10;&#9;&#9;c-4.7,1-9.2,1.7-13.3,2.3c13.9,0.5,29,0.5,35.2-1.5c4.4-1.4,15.3-6.5,28-12.4c41.8-19.4,60-26.9,64.2-23.5&#10;&#9;&#9;c4.5,3.7,9.7,10.8,9.2,18.5c-0.4,6.7-4.8,12.7-12.9,17.8c-6.6,4.1-15.2,10-24.4,16.3c-20.5,14-41.7,28.5-51.2,31.1&#10;&#9;&#9;c-13.1,3.7-113.2,39-114.2,39.4C209.2,435,208.9,435,208.7,435.1z M118.6,390.6l90.2,40.1c10.1-3.6,100.9-35.6,113.7-39.2&#10;&#9;&#9;c8.8-2.5,30.6-17.4,49.9-30.6c9.2-6.3,17.8-12.2,24.5-16.4c7-4.4,10.6-9.2,11-14.5c0.4-6.1-3.9-11.9-7.7-15&#10;&#9;&#9;c-4.5-1.6-40.5,15-59.8,24c-12.8,5.9-23.9,11.1-28.5,12.5c-13.6,4.4-62.8,0.3-64.9,0.1c-1.1-0.1-2-1.1-1.9-2.3&#10;&#9;&#9;c0.1-1.1,1-1.9,2.1-1.9c0.2,0,17.2-0.1,40.7-4.8c10.8-2.2,17.7-6.5,19.4-12.1c1.3-4.1-0.4-8.9-4.5-12.9c-8.2-8.2-124.9-4.7-133,0.6&#10;&#9;&#9;C149.7,331.4,123.9,380.2,118.6,390.6z"/>
	<polygon class="st2_career-3-39 targetColor" points="227,442.4 232.8,428.6 112.1,380.7 83.2,442.4 &#9;" style="fill: rgb(104, 225, 253);"/>
	<path class="st1_career-3-39" d="M227,444.5H83.2c-1.1,0-2.1-0.9-2.1-2.1c0-0.3,0.1-0.7,0.2-0.9l28.9-61.7c0.5-1,1.6-1.5,2.7-1.1l120.7,48&#10;&#9;&#9;c1.1,0.4,1.6,1.7,1.2,2.8c0,0,0,0,0,0l-5.9,13.8C228.6,444,227.8,444.5,227,444.5z M86.5,440.3h139.1l4.5-10.5l-116.9-46.4&#10;&#9;&#9;L86.5,440.3z"/>
</g>
<g id="lines_career-3-39">
	<path class="st3_career-3-39" d="M28.6,210.8c-1.2,0-2.1-0.9-2.1-2.1v-11.5c0-1.2,0.9-2.1,2.1-2.1s2.1,0.9,2.1,2.1v11.5&#10;&#9;&#9;C30.7,209.9,29.8,210.8,28.6,210.8z"/>
	<path class="st3_career-3-39" d="M28.6,233.8c-1.1,0-2.1-0.9-2.1-2.1c0,0,0,0,0,0v-11.5c0-1.2,0.9-2.1,2.1-2.1s2.1,0.9,2.1,2.1v11.5&#10;&#9;&#9;C30.7,232.9,29.8,233.8,28.6,233.8C28.6,233.8,28.6,233.8,28.6,233.8z"/>
	<path class="st3_career-3-39" d="M45.9,216.6H34.4c-1.2,0-2.1-0.9-2.1-2.1c0-1.2,0.9-2.1,2.1-2.1c0,0,0,0,0,0h11.5c1.2,0,2.1,0.9,2.1,2.1&#10;&#9;&#9;C48,215.6,47,216.6,45.9,216.6z"/>
	<path class="st3_career-3-39" d="M22.9,216.6H11.4c-1.2,0-2.1-0.9-2.1-2.1c0-1.2,0.9-2.1,2.1-2.1c0,0,0,0,0,0h11.5c1.2,0,2.1,0.9,2.1,2.1&#10;&#9;&#9;C25,215.6,24,216.6,22.9,216.6z"/>
	<path class="st3_career-3-39" d="M443.9,236.8c-1.2,0-2.1-0.9-2.1-2.1v-11.5c0.1-1.2,1.1-2,2.2-2c1,0.1,1.9,0.9,2,2v11.5&#10;&#9;&#9;C446,235.9,445.1,236.8,443.9,236.8z"/>
	<path class="st3_career-3-39" d="M443.9,259.8c-1.2,0-2.1-0.9-2.1-2.1c0,0,0,0,0,0v-11.5c0.1-1.2,1.1-2,2.2-2c1,0.1,1.9,0.9,2,2v11.5&#10;&#9;&#9;C446,258.9,445.1,259.8,443.9,259.8z"/>
	<path class="st3_career-3-39" d="M461.2,242.6h-11.5c-1.2,0-2.1-0.9-2.1-2.1c0-1.2,0.9-2.1,2.1-2.1h11.5c1.2,0,2.1,0.9,2.1,2.1&#10;&#9;&#9;C463.3,241.6,462.3,242.6,461.2,242.6z"/>
	<path class="st3_career-3-39" d="M438.1,242.6h-11.5c-1.2,0-2.1-0.9-2.1-2.1c0-1.2,0.9-2.1,2.1-2.1c0,0,0,0,0,0h11.5c1.2,0,2.1,0.9,2.1,2.1&#10;&#9;&#9;C440.2,241.6,439.3,242.6,438.1,242.6C438.2,242.6,438.2,242.6,438.1,242.6L438.1,242.6z"/>
	<path class="st3_career-3-39" d="M474.9,172c-1.2,0-2.1-0.9-2.1-2.1v-27.5c0-1.2,0.9-2.1,2.1-2.1c1.2,0,2.1,0.9,2.1,2.1v27.5&#10;&#9;&#9;C477,171.1,476.1,172,474.9,172z"/>
	<path class="st3_career-3-39" d="M488.6,158.2h-27.5c-1.2,0-2.1-0.9-2.1-2.1c0-1.2,0.9-2.1,2.1-2.1h27.5c1.2,0,2.1,0.9,2.1,2.1&#10;&#9;&#9;C490.7,157.3,489.8,158.2,488.6,158.2C488.6,158.2,488.6,158.2,488.6,158.2z"/>
	<path class="st3_career-3-39" d="M71,125.2c-1.2,0-2.1-0.9-2.1-2.1v-21.5c0-1.2,0.9-2.1,2.1-2.1c1.2,0,2.1,0.9,2.1,2.1v21.5&#10;&#9;&#9;C73.1,124.2,72.2,125.1,71,125.2z"/>
	<path class="st3_career-3-39" d="M81.7,114.4H60.3c-1.2,0-2.1-0.9-2.1-2.1c0-1.2,0.9-2.1,2.1-2.1h21.5c1.2,0,2.1,0.9,2.1,2.1&#10;&#9;&#9;C83.8,113.5,82.9,114.4,81.7,114.4L81.7,114.4z"/>
	<path class="st3_career-3-39" d="M81.7,291.2c-1.2,0-2.1-0.9-2.1-2.1v-21.5c0-1.2,0.9-2.1,2.1-2.1c1.2,0,2.1,0.9,2.1,2.1v21.5&#10;&#9;&#9;C83.8,290.2,82.9,291.2,81.7,291.2z"/>
	<path class="st3_career-3-39" d="M92.5,280.5H71c-1.2,0-2.1-0.9-2.1-2.1c0-1.2,0.9-2.1,2.1-2.1c0,0,0,0,0,0h21.5c1.2,0,2.1,0.9,2.1,2.1&#10;&#9;&#9;C94.6,279.5,93.6,280.4,92.5,280.5C92.5,280.5,92.5,280.5,92.5,280.5z"/>
</g>
<g id="work-suitcase_career-3-39">
	<path class="st4_career-3-39" d="M303.9,120c-4,0-7.3-3.3-7.3-7.3c0,0,0,0,0,0V79.5c0-4-3.3-7.3-7.3-7.3h-68.4c-4,0-7.3,3.3-7.3,7.3v0v33.1&#10;&#9;&#9;c0.1,4-3,7.4-7,7.6s-7.4-3-7.6-7c0-0.2,0-0.4,0-0.5V79.5c0-12.2,9.8-22,22-22h68.4c12.1,0,22,9.9,22,22v33.1&#10;&#9;&#9;C311.3,116.7,308,120,303.9,120C304,120,303.9,120,303.9,120z"/>
	<path class="st1_career-3-39" d="M303.9,122c-5.2,0-9.4-4.2-9.4-9.4V79.5c0-2.9-2.3-5.2-5.2-5.2h-68.4c-2.9,0-5.2,2.3-5.2,5.2v33.1&#10;&#9;&#9;c0.2,5.2-3.9,9.5-9.1,9.7s-9.5-3.9-9.7-9.1c0-0.2,0-0.4,0-0.6V79.5c0-13.2,10.8-24,24-24h68.5c13.2,0,24,10.8,24,24v33.1&#10;&#9;&#9;C313.3,117.8,309.1,122,303.9,122z M220.9,70.1h68.4c5.2,0,9.4,4.2,9.4,9.4v33.1c-0.1,2.9,2.1,5.3,5,5.5c2.9,0.1,5.3-2.1,5.5-5&#10;&#9;&#9;c0-0.2,0-0.3,0-0.5V79.5c0-11-8.9-19.8-19.9-19.9h-68.4c-11,0-19.9,8.9-19.9,19.9v33.1c-0.1,2.9,2.1,5.3,5,5.5&#10;&#9;&#9;c2.9,0.1,5.3-2.1,5.5-5c0-0.2,0-0.3,0-0.5V79.5C211.5,74.3,215.7,70.1,220.9,70.1z"/>
	<path class="st2_career-3-39 targetColor" d="M132.3,102h245.5c3.5,0,6.4,2.9,6.4,6.4v162.4c0,3.5-2.9,6.4-6.4,6.4H132.3c-3.5,0-6.4-2.9-6.4-6.4V108.4&#10;&#9;&#9;C125.9,104.9,128.8,102,132.3,102z" style="fill: rgb(104, 225, 253);"/>
	<path class="st1_career-3-39" d="M370.9,279.3H139.3c-8.5,0-15.4-6.9-15.5-15.5V115.4c0-8.5,6.9-15.5,15.5-15.5h231.6c8.5,0,15.5,6.9,15.5,15.5&#10;&#9;&#9;v148.4C386.3,272.4,379.4,279.3,370.9,279.3z M139.3,104.1c-6.2,0-11.3,5-11.3,11.3c0,0,0,0,0,0v148.4c0,6.2,5.1,11.3,11.3,11.3&#10;&#9;&#9;h231.6c6.2,0,11.3-5,11.3-11.3V115.4c0-6.2-5.1-11.3-11.3-11.3H139.3z"/>
	<path class="st1_career-3-39" d="M352.5,161.6H157.6c-18.7,0-33.8-15.1-33.8-33.8v-15.2c0-1.2,0.9-2.1,2.1-2.1c1.2,0,2.1,0.9,2.1,2.1v15.2&#10;&#9;&#9;c0,16.4,13.3,29.6,29.6,29.6h194.9c16.4,0,29.6-13.3,29.6-29.6v-15.2c0-1.2,0.9-2.1,2.1-2.1c1.2,0,2.1,0.9,2.1,2.1c0,0,0,0,0,0&#10;&#9;&#9;v15.2C386.3,146.4,371.2,161.6,352.5,161.6z"/>
	<path class="st5_career-3-39" d="M250,140.1h10.1c1.8,0,3.2,1.4,3.2,3.2V171c0,1.8-1.4,3.2-3.2,3.2H250c-1.8,0-3.2-1.4-3.2-3.2v-27.8&#10;&#9;&#9;C246.8,141.5,248.3,140.1,250,140.1z"/>
	<path class="st1_career-3-39" d="M256.6,176.3h-3.1c-4.8,0-8.8-3.9-8.8-8.8v-20.8c0-4.8,3.9-8.8,8.8-8.8h3.1c4.8,0,8.8,3.9,8.8,8.8v20.8&#10;&#9;&#9;C265.4,172.4,261.5,176.3,256.6,176.3z M253.5,142.2c-2.5,0-4.6,2.1-4.6,4.6v20.8c0,2.5,2.1,4.6,4.6,4.6h3.1c2.5,0,4.6-2.1,4.6-4.6&#10;&#9;&#9;v-20.8c0-2.5-2-4.6-4.6-4.6H253.5z"/>
</g>
</svg>